<svg width="38" height="38" viewBox="0 0 38 38" fill="none" xmlns="http://www.w3.org/2000/svg">
<path d="M25.9268 5.14559C27.7625 5.15107 29.5213 5.8827 30.8193 7.18068C32.1173 8.47867 32.8489 10.2375 32.8544 12.0732V25.9268C32.8489 27.7625 32.1173 29.5213 30.8193 30.8193C29.5213 32.1173 27.7625 32.8489 25.9268 32.8544H12.0732C10.2375 32.8489 8.47867 32.1173 7.18068 30.8193C5.8827 29.5213 5.15107 27.7625 5.14559 25.9268V12.0732C5.15107 10.2375 5.8827 8.47867 7.18068 7.18068C8.47867 5.8827 10.2375 5.15107 12.0732 5.14559H25.9268ZM25.9268 2.375H12.0732C6.73906 2.375 2.375 6.73906 2.375 12.0732V25.9268C2.375 31.2609 6.73906 35.625 12.0732 35.625H25.9268C31.2609 35.625 35.625 31.2609 35.625 25.9268V12.0732C35.625 6.73906 31.2609 2.375 25.9268 2.375Z" fill="white"/>
<path d="M28.005 12.0732C27.5939 12.0732 27.1922 11.9514 26.8504 11.723C26.5087 11.4947 26.2423 11.1701 26.085 10.7904C25.9277 10.4107 25.8866 9.99281 25.9668 9.5897C26.047 9.18658 26.2449 8.81629 26.5355 8.52566C26.8261 8.23503 27.1964 8.03711 27.5995 7.95692C28.0027 7.87674 28.4205 7.91789 28.8002 8.07518C29.18 8.23247 29.5045 8.49883 29.7329 8.84057C29.9612 9.18232 30.0831 9.5841 30.0831 9.99512C30.0837 10.2682 30.0303 10.5387 29.9261 10.7911C29.8219 11.0435 29.6688 11.2728 29.4757 11.4659C29.2826 11.659 29.0533 11.812 28.8009 11.9163C28.5485 12.0205 28.278 12.0738 28.005 12.0732ZM19 13.4582C20.0961 13.4582 21.1676 13.7832 22.0789 14.3921C22.9903 15.0011 23.7006 15.8666 24.1201 16.8793C24.5395 17.8919 24.6493 19.0062 24.4354 20.0813C24.2216 21.1563 23.6938 22.1438 22.9187 22.9188C22.1437 23.6939 21.1562 24.2217 20.0812 24.4355C19.0062 24.6493 17.8919 24.5396 16.8792 24.1201C15.8666 23.7007 15.001 22.9904 14.3921 22.079C13.7831 21.1676 13.4581 20.0962 13.4581 19.0001C13.4597 17.5308 14.044 16.1221 15.083 15.0831C16.122 14.0441 17.5307 13.4597 19 13.4582ZM19 10.6876C17.3559 10.6876 15.7488 11.1751 14.3818 12.0885C13.0148 13.0019 11.9494 14.3001 11.3203 15.819C10.6911 17.3379 10.5265 19.0093 10.8472 20.6218C11.168 22.2342 11.9597 23.7154 13.1222 24.8779C14.2847 26.0404 15.7658 26.8321 17.3783 27.1529C18.9908 27.4736 20.6621 27.309 22.1811 26.6798C23.7 26.0507 24.9982 24.9852 25.9116 23.6183C26.825 22.2513 27.3125 20.6441 27.3125 19.0001C27.3125 16.7955 26.4367 14.6812 24.8778 13.1223C23.3189 11.5634 21.2046 10.6876 19 10.6876Z" fill="white"/>
</svg>
