<svg width="38" height="35" viewBox="0 0 38 35" fill="none" xmlns="http://www.w3.org/2000/svg">
<g clip-path="url(#clip0_202_47)">
<path d="M19.003 0C8.50915 0 0 6.74383 0 15.0604C0 20.4757 3.60688 25.2179 9.01423 27.8749C8.61611 29.3643 7.57623 33.2664 7.36826 34.1004C7.11274 35.137 7.74855 35.1251 8.1645 34.8451C8.49132 34.6247 13.3698 31.3004 15.4793 29.8647C16.6202 30.0374 17.8027 30.1268 19.0089 30.1268C29.5027 30.1268 38.0119 23.383 38.0119 15.0664C38.0119 6.74979 29.4968 0 19.003 0ZM30.7862 19.4809L28.2073 15.954L27.6191 16.4306C27.6191 16.4306 27.6191 18.1702 27.6191 19.0936C27.6191 19.886 25.6106 19.886 25.6106 19.0936C25.6106 18.5932 25.6522 11.8315 25.6344 11.0809C25.6225 10.6698 26.1514 10.4553 26.6683 10.4553C27.1496 10.4553 27.6191 10.64 27.631 11.0272C27.6607 12.04 27.631 13.8749 27.631 13.8749C27.631 13.8749 30.5426 10.9557 30.9586 10.5387C31.3864 10.1098 32.7115 11.4502 32.2837 11.8732C31.5528 12.606 29.6929 14.6196 29.6929 14.6196L32.4322 18.2357C32.9551 18.9268 31.3151 20.1719 30.7922 19.4809H30.7862ZM16.2755 11.0332C16.6202 11.7719 18.5217 17.0085 19.0743 18.4681C19.4605 19.4868 17.6006 20.1898 17.2144 19.177C16.739 17.92 16.8638 17.8604 16.8638 17.8604H13.2866L12.8944 19.2306C12.4785 20.1898 10.678 19.4094 11.094 18.4443C11.6704 17.1157 13.4114 12.0936 13.8927 11.0332C14.0829 10.6102 14.5285 10.4434 14.992 10.4434C15.5446 10.4434 16.121 10.6877 16.2815 11.0332H16.2755ZM11.6941 10.4434C12.9123 10.4434 12.9063 12.3617 11.6941 12.3617C10.4047 12.3617 9.74511 12.3617 9.74511 12.3617V18.9447C9.73917 19.8621 7.70696 19.8443 7.70696 18.9328C7.71884 17.6757 7.70696 12.2902 7.70696 12.2902H5.75199C4.60516 12.2902 4.59922 10.4136 5.75199 10.4077C5.75199 10.4077 10.3334 10.4434 11.7001 10.4434H11.6941ZM19.7695 18.5515C19.7695 18.5515 19.7636 13.0528 19.7576 11.3489C19.7576 10.7472 20.2865 10.4494 20.8153 10.4494C21.3442 10.4494 21.873 10.7472 21.873 11.343C21.873 12.5762 21.873 17.6638 21.873 17.6638C21.873 17.6638 23.5487 17.6757 24.4697 17.6757C25.3908 17.6757 25.3908 19.6357 24.4697 19.6357C23.5487 19.6357 21.4749 19.6477 20.542 19.6477C19.6091 19.6477 19.7636 18.5574 19.7636 18.5574L19.7695 18.5515Z" fill="white"/>
<path d="M16.1923 16.0553L15.1049 12.6357L13.9283 16.0553H16.1923Z" fill="white"/>
</g>
<defs>
<clipPath id="clip0_202_47">
<rect width="38" height="35" fill="white"/>
</clipPath>
</defs>
</svg>
