<svg width="146" height="45" viewBox="0 0 146 45" fill="none" xmlns="http://www.w3.org/2000/svg">
<path d="M34.7661 0C27.3389 0 19.1582 4.54719 14.0289 8.86014L14.4315 9.44231C22.3988 3.84789 33.4623 0.206691 36.5137 5.66676C38.1204 8.55355 35.3888 14.3582 31.5393 18.9569C32.4681 16.9279 31.8557 13.0353 26.4857 13.0353C17.5689 13.0387 0 24.8683 0 36.977C0 41.8342 3.36103 45 8.89279 45C23.713 45 43.8207 20.6725 43.8207 8.4502C43.8207 4.13381 41.3403 0 34.7661 0ZM13.967 31.913C11.4007 31.913 10.1691 29.9323 10.8124 27.6484C12.1403 22.9185 20.6787 15.9082 26.4926 15.9082C30.7412 15.9082 30.4213 19.7113 27.9341 22.953L26.558 24.4687C21.6282 29.3225 17.0494 31.913 13.9636 31.913H13.967Z" fill="white"/>
<path d="M66.6608 11.4317C65.2916 9.75062 63.0899 8.99275 61.5075 8.99275H52.8383L51.3694 14.4907H59.5397L60.3207 14.5768C60.3207 14.5768 61.0774 14.6665 61.4834 15.2279C61.8274 15.6896 61.8687 16.3819 61.6278 17.2914L61.2426 18.7382H56.0961C51.6583 18.7382 45.4833 21.9247 44.1072 27.0713C43.4192 29.6342 44.0212 31.8527 45.3491 33.489C46.6701 35.1082 49.1642 36.0004 51.8509 36.0004H56.6225V36.0072H62.6806L65.5221 25.3695L67.6171 17.5567C68.4429 14.4873 67.5484 12.5341 66.6574 11.4386L66.6608 11.4317ZM52.9484 30.5059C52.0849 30.5059 51.3694 30.2027 50.9187 29.6549C50.4508 29.0762 50.3132 28.2564 50.5334 27.4123C51.0253 25.5763 53 24.1466 55.0262 24.1466H59.7908L58.0879 30.5059H52.945H52.9484Z" fill="white"/>
<path d="M81.4883 8.99961C79.1387 8.99961 76.9645 9.70237 75.186 11.0148C73.4005 12.3411 72.4098 13.9326 71.825 16.1374C70.5521 20.9051 74.2881 23.1958 77.2983 24.8321C79.4517 25.9965 81.3129 27.0092 80.9104 28.5009C80.6213 29.5722 80.1605 30.5093 77.5046 30.5093H69.4168L67.9444 36.0038H76.8992C79.3038 36.0038 81.5228 35.5007 83.3116 34.1263C85.1005 32.7519 86.1119 30.8296 86.7346 28.4871C87.3331 26.2548 86.9238 24.1328 85.4996 22.5344C84.3024 21.2047 82.5858 20.2746 81.0686 19.4547C79.1318 18.4074 77.3017 17.4223 77.625 16.2303C77.8176 15.5104 78.5401 14.4941 80.1019 14.4941H87.9695L89.4419 8.99617H81.4917L81.4883 8.99961Z" fill="white"/>
<path d="M96.4698 8.99617L89.4417 36.0038H95.3724L102.397 8.99617H96.4698Z" fill="white"/>
<path d="M120.579 8.99617C110.127 9.04095 104.661 16.0099 102.927 22.5068C100.87 30.1991 104.96 36.0038 112.446 36.0038H117.465L118.931 30.5093H113.919C111.115 30.5093 107.265 28.3011 108.813 22.5068C110.052 17.8942 114.531 14.4975 119.464 14.4975H122.646L124.115 8.99961H120.579V8.99617Z" fill="white"/>
<path d="M136.446 8.99961C134.1 8.99961 131.922 9.70237 130.151 11.0148C128.355 12.3411 127.37 13.9326 126.779 16.1374C125.506 20.9051 129.245 23.1958 132.257 24.8321C134.41 25.9965 136.274 27.0092 135.868 28.5009C135.587 29.5722 135.122 30.5093 132.459 30.5093H124.371L122.899 36.0038H131.857C134.258 36.0038 136.474 35.5007 138.262 34.1263C140.055 32.7519 141.066 30.8296 141.689 28.4871C142.29 26.2548 141.882 24.1328 140.451 22.5344C139.254 21.2047 137.533 20.2746 136.027 19.4547C134.079 18.4074 132.253 17.4223 132.573 16.2303C132.765 15.5104 133.484 14.4941 135.056 14.4941H142.928L144.393 8.99617H136.439L136.446 8.99961Z" fill="white"/>
</svg>
